<svg width="512" height="512" viewBox="0 0 512 512" fill="none" xmlns="http://www.w3.org/2000/svg">
<rect width="512" height="512" rx="26" fill="url(#paint0_linear_80_7)"/>
<path fill-rule="evenodd" clip-rule="evenodd" d="M75 249.769C75 366.258 75.2175 385.956 76.5297 388.495C78.7689 392.829 85.0008 397.908 88.9661 398.632C90.8653 398.98 151.566 399.103 223.856 398.906L355.293 398.548L367.434 395.824C402.62 387.93 424.084 371.368 432.913 345.298C436.212 335.556 437.05 312.908 434.531 301.579C429.904 280.772 415.434 264.609 391.334 253.326L384.359 250.06L390.642 245.863C404.039 236.914 414.959 221.285 418.576 205.885C420.871 196.112 420.691 179.548 418.18 169.729C412.082 145.876 394.657 128.56 367.984 119.849C351.322 114.408 344.185 114 265.686 114H193.24V141.945V169.891L262.654 170.218C328.863 170.53 332.32 170.642 337.537 172.637C351.681 178.047 356.892 185.184 356.854 199.09C356.818 212.224 352.527 219.068 341.161 224.12C331.029 228.624 323.879 229.045 256.847 229.084L193.24 229.121V255.525V281.928L263.71 281.95C302.467 281.961 337.195 282.407 340.882 282.94C352.102 284.564 358.706 287.162 364.22 292.12C370.657 297.91 372.987 303.472 373.004 313.085C373.025 325.14 368.773 332.364 358.599 337.556C347.667 343.136 347.415 343.147 238.9 343.167L138.343 343.185V228.593V114H106.672H75V249.769Z" fill="white"/>
<defs>
<linearGradient id="paint0_linear_80_7" x1="20.5" y1="502" x2="495" y2="14.5" gradientUnits="userSpaceOnUse">
<stop stop-color="#626FBF"/>
<stop offset="1" stop-color="#972AE6"/>
</linearGradient>
</defs>
</svg>
