<svg width="1028" height="1028" viewBox="0 0 1028 1028" fill="none" xmlns="http://www.w3.org/2000/svg">
<rect width="1028" height="1028" fill="url(#paint0_radial_1109_36)"/>
<rect width="1028" height="1028" fill="url(#paint1_radial_1109_36)"/>
<path d="M278.859 230.439H154.004V761.466C153.691 782.338 171.66 797.95 189.037 797.553H674.231C786.24 793.398 877.562 749.805 873.893 635.031C872.768 573.989 847.786 533.857 767.477 501.221C832.692 466.454 846.311 411.228 840.967 357.928C836.854 297.277 782.771 232.694 665.275 230.439H391.596V339.753H638.671C683.867 341.154 713.96 355.48 718.22 392.434C719.15 424.194 709.903 457.177 632.876 459.866H391.608V563.648H656.056C716.657 563.633 749.198 583.909 750.356 624.232C750.471 655.589 735.509 683.948 671.07 688.239H278.859V230.439Z" fill="white"/>
<defs>
<radialGradient id="paint0_radial_1109_36" cx="0" cy="0" r="1" gradientUnits="userSpaceOnUse" gradientTransform="translate(0 1028) rotate(-45) scale(1453.81)">
<stop stop-color="#1D1D38"/>
<stop offset="0.4" stop-color="#0C1019"/>
</radialGradient>
<radialGradient id="paint1_radial_1109_36" cx="0" cy="0" r="1" gradientUnits="userSpaceOnUse" gradientTransform="translate(896.5 3.74136e-05) rotate(131.091) scale(1364)">
<stop stop-color="#2A2750"/>
<stop offset="0.45" stop-color="#0C1019"/>
<stop offset="0.5" stop-color="#0C1019" stop-opacity="0"/>
</radialGradient>
</defs>
</svg>
